<?xml version="1.0" encoding="iso-8859-1"?>
<!-- Generator: Adobe Illustrator 19.0.0, SVG Export Plug-In . SVG Version: 6.00 Build 0)  -->
<svg version="1.1" id="Layer_1" xmlns="http://www.w3.org/2000/svg" xmlns:xlink="http://www.w3.org/1999/xlink" x="0px" y="0px"
	 viewBox="0 0 512 512" style="enable-background:new 0 0 512 512;" xml:space="preserve">
<path style="fill:#1C75BC;" d="M256.001,200.953c30.408,0,55.047,24.639,55.047,55.047s-24.639,55.047-55.047,55.047
	c-30.408,0-55.047-24.639-55.047-55.047S225.593,200.953,256.001,200.953z"/>
<path style="fill:#E7ECED;" d="M320.069,324.205c-16.753,15.739-39.286,25.378-64.069,25.378c-29.393,0-55.62-13.555-72.771-34.753
	l-7.897-11.371c-8.206-13.908-12.915-30.132-12.915-47.459c0-51.683,41.9-93.583,93.583-93.583s93.583,41.9,93.583,93.583
	C349.584,282.9,338.235,307.143,320.069,324.205z M311.048,256c0-30.408-24.639-55.047-55.047-55.047
	c-30.408,0-55.047,24.639-55.047,55.047s24.639,55.047,55.047,55.047C286.408,311.047,311.048,286.408,311.048,256z"/>
<path style="fill:#FFD248;" d="M485.442,162.417h-19.961H280.769h-24.768c11.741,0,22.965,2.182,33.319,6.13
	c35.227,13.431,60.264,47.511,60.264,87.453c0,26.9-11.349,51.143-29.514,68.205L172.529,482.281l-4.608,4.937l-0.132,0.342
	c27.397,10.445,57.132,16.169,88.212,16.169c136.818,0,247.728-110.91,247.728-247.728
	C503.729,222.879,497.232,191.28,485.442,162.417z"/>
<path style="fill:#36C63F;" d="M280.886,346.209c-7.928,2.184-16.266,3.374-24.885,3.374c-29.393,0-55.621-13.555-72.771-34.753
	c-2.912-3.573-5.548-7.379-7.897-11.371L63.44,142.326l-14.999-21.6C23.041,159.604,8.272,206.082,8.272,256
	c0,105.748,66.253,196.012,159.516,231.559l0.132-0.342l10.289-11.024l122.418-131.159l19.441-20.83
	C309.144,334.469,295.749,342.115,280.886,346.209z"/>
<path style="fill:#DD352E;" d="M256.001,8.272c-86.899,0-163.354,44.746-207.56,112.454l12.072,17.383l99.186,142.835l15.634,22.514
	c-6.5-11.016-10.794-23.489-12.304-36.808c-0.396-3.496-0.611-7.049-0.611-10.651c0-51.683,41.9-93.583,93.583-93.583H461.52h23.921
	C448.527,71.988,359.709,8.272,256.001,8.272z"/>
<circle style="fill:#0082C6;" cx="256.122" cy="255.879" r="32.536"/>
<path style="fill:#FDBF47;" d="M485.442,162.417h-19.961c8.344,24.808,12.88,51.372,12.88,79.003
	c0,136.818-110.91,247.728-247.728,247.728c-20.016,0-39.469-2.387-58.104-6.867l-4.608,4.937l-0.132,0.342
	c27.397,10.445,57.132,16.169,88.212,16.169c136.818,0,247.728-110.91,247.728-247.728
	C503.729,222.879,497.232,191.28,485.442,162.417z"/>
<path style="fill:#00AF4D;" d="M37.522,252.735c0-39.674,9.337-77.171,25.918-110.409l-14.999-21.6
	C23.041,159.604,8.272,206.082,8.272,256c0,105.748,66.253,196.012,159.516,231.559l0.132-0.342l10.289-11.024
	C94.987,436.258,37.522,351.217,37.522,252.735z"/>
<path style="fill:#C02E25;" d="M252.229,47.271c88.05,0,165.359,45.934,209.291,115.145h23.921
	C448.527,71.988,359.709,8.272,256.001,8.272c-86.899,0-163.354,44.746-207.56,112.454l12.072,17.383
	C105.935,82.658,174.951,47.271,252.229,47.271z"/>
<path d="M493.1,159.288v0.002c-18.996-46.535-51.037-86.19-92.659-114.682C357.809,15.424,307.863,0,256.001,0
	C169.201,0,89.02,43.441,41.517,116.202C14.357,157.772,0.001,206.114,0.001,256c0,52.912,16.005,103.694,46.284,146.856
	c29.597,42.188,70.594,74.151,118.557,92.433C193.929,506.377,224.599,512,255.999,512c68.381,0,132.669-26.629,181.021-74.98
	c48.351-48.351,74.979-112.64,74.979-181.02C512.001,222.53,505.641,189.991,493.1,159.288z M256.001,16.544
	c48.513,0,95.229,14.425,135.096,41.716c35.495,24.299,63.537,57.275,81.682,95.885H256.001
	c-56.163,0-101.855,45.692-101.855,101.855c0,0.836,0.021,1.67,0.042,2.505L58.467,120.66
	C103.241,55.369,176.657,16.544,256.001,16.544z M314.407,318.176c-15.881,14.919-36.624,23.135-58.407,23.135
	c-25.773,0-49.867-11.466-66.174-31.485l-7.499-10.8c-7.611-12.994-11.637-27.864-11.637-43.026
	c0-47.041,38.27-85.311,85.311-85.311s85.312,38.27,85.312,85.311C341.312,279.798,331.757,301.878,314.407,318.176z
	 M59.828,393.354C31.512,352.99,16.544,305.494,16.544,256c0-42.495,11.136-83.783,32.306-120.179l119.569,172.187
	c2.452,4.127,5.19,8.07,8.135,11.715l1.081,1.556l0.127-0.088c19.431,23.316,47.853,36.663,78.237,36.663
	c8.174,0,16.224-0.972,24.011-2.853L165.455,477.738C122.862,460.347,86.426,431.268,59.828,393.354z M425.322,425.321
	c-45.227,45.228-105.359,70.135-169.322,70.135c-25.236,0-49.958-3.891-73.668-11.556l143.641-153.897
	c20.265-19.162,31.882-46.112,31.882-74.003c0-35.671-18.435-67.112-46.275-85.311h168.233
	c10.382,27.188,15.644,55.86,15.644,85.311C495.457,319.962,470.549,380.096,425.322,425.321z"/>
<path d="M256.001,192.681c-34.913,0-63.318,28.405-63.318,63.319s28.405,63.319,63.318,63.319c34.914,0,63.319-28.405,63.319-63.319
	S290.915,192.681,256.001,192.681z M256.001,302.775c-25.792,0-46.774-20.983-46.774-46.775c0-25.792,20.982-46.775,46.774-46.775
	s46.775,20.983,46.775,46.775S281.791,302.775,256.001,302.775z"/>
<g>
	<path style="fill:#FFFFFF;" d="M124.041,442.109c-37.413-36.745-63.251-78.076-76.796-122.844
		c-12.087-39.955-11.917-75.266-9.644-97.853l16.46,1.656c-2.121,21.089-2.278,54.065,9.02,91.406
		c12.732,42.082,37.142,81.054,72.552,115.831L124.041,442.109z"/>
	<path style="fill:#FFFFFF;" d="M56.453,206.082l-16.275-2.977c2.528-13.819,5.415-21.927,5.538-22.266l15.568,5.597l-7.784-2.799
		l7.789,2.786C61.261,186.495,58.711,193.731,56.453,206.082z"/>
	<path style="fill:#FFFFFF;" d="M413.358,117.071c-4.246-3.711-8.587-7.315-12.905-10.709l10.225-13.006
		c4.543,3.572,9.108,7.36,13.569,11.26L413.358,117.071z"/>
	<path style="fill:#FFFFFF;" d="M116.311,101.817l-10.455-12.823c1.412-1.153,35.191-28.396,87.895-43.026
		c31.046-8.618,62.222-11.026,92.658-7.15c38.011,4.837,74.867,19.518,109.544,43.635l-9.445,13.581
		c-32.347-22.495-66.596-36.208-101.797-40.756c-28.169-3.64-57.074-1.466-85.922,6.461
		C149.252,75.351,116.635,101.554,116.311,101.817z"/>
	<path style="fill:#FFFFFF;" d="M287.617,486.074l-4.534-15.911c6.6-1.882,13.125-3.945,19.392-6.134l5.456,15.617
		C301.361,481.942,294.526,484.105,287.617,486.074z"/>
	<path style="fill:#FFFFFF;" d="M326.029,472.736l-6.357-15.274c39.585-16.473,71.807-39.872,95.773-69.548
		c19.148-23.712,33.151-51.519,41.616-82.649c14.468-53.205,7.686-97.835,7.616-98.278l16.341-2.581
		c0.309,1.959,7.396,48.611-7.994,105.2c-9.07,33.354-24.112,63.197-44.708,88.701C402.599,430.151,368.185,455.193,326.029,472.736
		z"/>
	<rect x="247.85" y="247.055" style="fill:#FFFFFF;" width="15.441" height="16.544"/>
</g>
<g>
</g>
<g>
</g>
<g>
</g>
<g>
</g>
<g>
</g>
<g>
</g>
<g>
</g>
<g>
</g>
<g>
</g>
<g>
</g>
<g>
</g>
<g>
</g>
<g>
</g>
<g>
</g>
<g>
</g>
</svg>
